<?xml version="1.0" encoding="utf-8"?>
<!-- Generator: Adobe Illustrator 24.3.0, SVG Export Plug-In . SVG Version: 6.00 Build 0)  -->
<svg version="1.1" id="Layer_1" xmlns="http://www.w3.org/2000/svg" x="0px" y="0px" viewBox="0 0 66 72" style="enable-background:new 0 0 66 72;" xml:space="preserve">
<g>
	<path class="st0" d="M23.6-46.5h-1.3v-0.3c0-0.4,0.3-0.7,0.7-0.7s0.7,0.3,0.7,0.7V-46.5z M22.4-46.6h1.1v-0.1
		c0-0.3-0.2-0.5-0.5-0.5s-0.5,0.2-0.5,0.5V-46.6z"/>
</g>
<g>
	<path class="st0" d="M23.6-47.5l0-0.1c0.2,0,0.3-0.1,0.3-0.3c0-0.2-0.1-0.3-0.3-0.3v-0.1c0.2,0,0.4,0.2,0.4,0.4
		C24-47.7,23.8-47.5,23.6-47.5z"/>
</g>
<g>
	<path class="st0" d="M24.1-46.7h-0.4v-0.1H24v-0.1c0-0.1,0-0.2-0.1-0.3c-0.1-0.1-0.2-0.1-0.3-0.1v-0.1c0.1,0,0.3,0.1,0.4,0.2
		c0.1,0.1,0.2,0.2,0.2,0.4V-46.7z"/>
</g>
<g>
	<path class="st1" d="M33.2,40.3c-2.1,0-3.9-1.7-3.9-3.9s1.7-3.9,3.9-3.9s3.9,1.7,3.9,3.9S35.4,40.3,33.2,40.3z M33.2,34.3
		c-1.2,0-2.1,1-2.1,2.1s1,2.1,2.1,2.1s2.1-1,2.1-2.1S34.4,34.3,33.2,34.3z"/>
</g>
<g>
	<path class="st1" d="M36.4,46.7c-0.9,0-1.7-0.4-2.2-1.3l-0.1-0.2c-0.3-0.5-0.6-0.7-0.9-0.7c0,0,0,0,0,0c-0.3,0-0.6,0.3-0.9,0.7
		l-0.1,0.2c-0.4,0.6-0.9,1-1.6,1.2c-0.7,0.2-1.3,0.1-1.9-0.3l-1.7-1c-0.6-0.4-1.1-1-1.3-1.7c-0.2-0.7-0.1-1.5,0.3-2.1
		c0.3-0.5,0.3-0.9,0.2-1.1S25.7,40,25.1,40c-1.5,0-2.8-1.2-2.8-2.8v-1.8c0-1.5,1.2-2.8,2.8-2.8c0.5,0,0.9-0.2,1.1-0.4
		s0.1-0.7-0.2-1.1c-0.4-0.6-0.5-1.4-0.3-2.1c0.2-0.7,0.7-1.3,1.3-1.7l1.7-1c0.6-0.3,1.2-0.4,1.9-0.3c0.7,0.2,1.2,0.6,1.6,1.2
		l0.1,0.2c0.3,0.5,0.6,0.7,0.9,0.7h0c0.3,0,0.6-0.3,0.9-0.7l0.1-0.2c0.7-1.2,2.3-1.6,3.5-0.9l1.7,1c0.6,0.4,1.1,1,1.3,1.7
		c0.2,0.7,0.1,1.5-0.3,2.1c-0.3,0.5-0.3,0.9-0.2,1.1s0.6,0.4,1.1,0.4c1.5,0,2.8,1.2,2.8,2.8v1.8c0,1.5-1.2,2.8-2.8,2.8
		c-0.5,0-0.9,0.2-1.1,0.4s-0.1,0.7,0.2,1.1c0.8,1.3,0.3,3-1,3.8l-1.7,1C37.3,46.6,36.9,46.7,36.4,46.7z M33.2,42.8
		C33.2,42.8,33.2,42.8,33.2,42.8c0.9,0,1.8,0.6,2.4,1.6l0.1,0.2c0.2,0.4,0.7,0.5,1.1,0.3l1.7-1c0.5-0.3,0.7-0.9,0.4-1.4
		c-0.6-1-0.7-2.1-0.2-2.9c0.5-0.8,1.4-1.3,2.6-1.3c0.6,0,1-0.5,1-1v-1.8c0-0.6-0.5-1-1-1c-1.2,0-2.1-0.5-2.6-1.3
		c-0.5-0.8-0.4-1.9,0.2-2.9c0.1-0.2,0.2-0.5,0.1-0.8c-0.1-0.3-0.2-0.5-0.5-0.6l-1.7-1c-0.4-0.2-0.9-0.1-1.1,0.3l-0.1,0.2
		c-0.6,1-1.5,1.6-2.4,1.6c0,0,0,0,0,0c-0.9,0-1.8-0.6-2.4-1.6l-0.1-0.2c-0.1-0.2-0.3-0.3-0.5-0.4c-0.2,0-0.4,0-0.6,0.1l-1.7,1
		c-0.2,0.1-0.4,0.4-0.5,0.6c-0.1,0.3,0,0.5,0.1,0.8c0.6,1,0.7,2.1,0.2,2.9s-1.4,1.3-2.6,1.3c-0.6,0-1,0.5-1,1v1.8c0,0.6,0.5,1,1,1
		c1.2,0,2.1,0.5,2.6,1.3s0.4,1.9-0.2,2.9c-0.1,0.2-0.2,0.5-0.1,0.8c0.1,0.3,0.2,0.5,0.5,0.6l1.7,1c0.2,0.1,0.4,0.1,0.6,0.1
		c0.2-0.1,0.4-0.2,0.5-0.4l0.1-0.2C31.4,43.4,32.3,42.8,33.2,42.8z"/>
</g>
</svg>
