<?xml version="1.0" encoding="utf-8"?>
<!-- Generator: Adobe Illustrator 24.3.0, SVG Export Plug-In . SVG Version: 6.00 Build 0)  -->
<svg version="1.1" id="Layer_1" xmlns="http://www.w3.org/2000/svg" x="0px" y="0px" viewBox="0 0 66 72" style="enable-background:new 0 0 66 72;" xml:space="preserve">

<g>
	<path class="st0" d="M23.6-46.5h-1.3v-0.3c0-0.4,0.3-0.7,0.7-0.7s0.7,0.3,0.7,0.7V-46.5z M22.4-46.6h1.1v-0.1
		c0-0.3-0.2-0.5-0.5-0.5s-0.5,0.2-0.5,0.5V-46.6z"/>
</g>
<g>
	<path class="st0" d="M23.6-47.5l0-0.1c0.2,0,0.3-0.1,0.3-0.3c0-0.2-0.1-0.3-0.3-0.3v-0.1c0.2,0,0.4,0.2,0.4,0.4
		C24-47.7,23.8-47.5,23.6-47.5z"/>
</g>
<g>
	<path class="st0" d="M24.1-46.7h-0.4v-0.1H24v-0.1c0-0.1,0-0.2-0.1-0.3c-0.1-0.1-0.2-0.1-0.3-0.1v-0.1c0.1,0,0.3,0.1,0.4,0.2
		c0.1,0.1,0.2,0.2,0.2,0.4V-46.7z"/>
</g>
<g>
	<g>
		<path fill="#fff" class="st0" d="M29.8,35.8C29.8,35.8,29.8,35.8,29.8,35.8c-0.1,0-0.2,0-0.2,0c0,0-0.1,0-0.1,0c-2.8-0.1-4.9-2.3-4.9-5.1
			c0-2.8,2.3-5.1,5.1-5.1s5.1,2.3,5.1,5.1C34.8,33.4,32.6,35.7,29.8,35.8C29.9,35.8,29.9,35.8,29.8,35.8z M29.7,27.3
			c-1.9,0-3.4,1.5-3.4,3.4c0,1.8,1.4,3.3,3.2,3.4c0.1,0,0.2,0,0.3,0c1.8-0.1,3.2-1.6,3.2-3.4C33.1,28.8,31.6,27.3,29.7,27.3z"/>
	</g>
	<g>
		<path fill="#fff" class="st0" d="M36.1,46.3H23.6c-0.5,0-0.9-0.4-0.9-0.9v-2.1c0-3.9,3.2-7.1,7.1-7.1c3.9,0,7.1,3.2,7.1,7.1v2.1
			C36.9,45.9,36.5,46.3,36.1,46.3z M24.5,44.5h10.7l0-1.2c0-2.9-2.4-5.3-5.3-5.3c-2.9,0-5.3,2.4-5.3,5.3V44.5z"/>
	</g>
	<g>
		<path fill="#fff" class="st0" d="M36.8,35.9c-0.5,0-0.8-0.4-0.9-0.8c0-0.5,0.4-0.9,0.8-0.9c1.4,0,2.6-1.2,2.6-2.7c0-1.5-1.2-2.7-2.7-2.7
			c-0.5,0-0.9-0.4-0.9-0.9s0.4-0.9,0.9-0.9c2.4,0,4.4,2,4.4,4.4C41,33.9,39.2,35.9,36.8,35.9C36.8,35.9,36.8,35.9,36.8,35.9z"/>
	</g>
	<g>
		<path fill="#fff" class="st0" d="M41.9,44.6h-3.2c-0.5,0-0.9-0.4-0.9-0.9s0.4-0.9,0.9-0.9H41V42c0-1.1-0.4-2.2-1.2-3c-0.8-0.8-1.9-1.2-3-1.2
			c-0.5,0-0.9-0.4-0.9-0.9c0-0.5,0.4-0.9,0.9-0.9c0,0,0,0,0,0c1.6,0,3.1,0.6,4.2,1.8c1.1,1.1,1.8,2.6,1.8,4.2v1.7
			C42.8,44.2,42.4,44.6,41.9,44.6z"/>
	</g>
</g>
</svg>
